<svg xmlns="http://www.w3.org/2000/svg" width="250" height="250" fill="current"><style>  .a{text-decoration-line:none;text-decoration:none;}</style><style>    .a{baseline-shift:baseline;color-interpolation-filters:linearRGB;color-interpolation:sRGB;color-rendering:auto;direction:ltr;dominant-baseline:auto;font-family:sans-serif;font-feature-settings:normal;font-size:medium;font-variant-alternates:normal;font-variant-caps:normal;font-variant-east-asian:normal;font-variant-ligatures:normal;font-variant-numeric:normal;font-variant-position:normal;font-variation-settings:normal;image-rendering:auto;inline-size:0;isolation:auto;letter-spacing:normal;line-height:normal;mix-blend-mode:normal;shape-margin:0;shape-padding:0;shape-rendering:auto;solid-color:#000;solid-opacity:1;stop-color:#000;text-align:start;text-decoration-color:#000;text-decoration-line:none;text-decoration-style:solid;text-decoration:none;text-indent:0;text-orientation:mixed;text-rendering:auto;text-transform:none;vector-effect:none;white-space:normal;word-spacing:normal;}</style><g transform="matrix(0.96839842 0 0 0.97270579 5.7951296 68.201288)"><path d="M1.7 28.3A7.7 7.7 0 0 0-6 36v143.2a7.7 7.7 0 0 0 7.7 7.7 7.7 7.7 0 0 0 7.7-7.7V36A7.7 7.7 0 0 0 1.7 28.3Z" class="a"/><path d="m4.5 145a7.7 7.7 0 0 0-7.7 7.7 7.7 7.7 0 0 0 7.7 7.7H243a7.7 7.7 0 0 0 7.7-7.7 7.7 7.7 0 0 0-7.7-7.7z" class="a"/><path d="m103.9 68.8a7.7 7.7 0 0 0-7.7 7.7 7.7 7.7 0 0 0 7.7 7.7h108.8c6.8 0 12.6 3.6 17.1 9 4.5 5.3 6.9 12.5 6.9 15.7v70.3a7.7 7.7 0 0 0 7.7 7.7 7.7 7.7 0 0 0 7.7-7.7v-70.3c0-8.7-3.9-17.7-10.5-25.6C235 75.4 225 68.8 212.7 68.8Z" class="a"/><path d="m103.8 68.8a7.7 7.7 0 0 0-7.7 7.7v72.2a7.7 7.7 0 0 0 7.7 7.7 7.7 7.7 0 0 0 7.7-7.7V76.5a7.7 7.7 0 0 0-7.7-7.7z" class="a"/><path d="m53.2 68.2c-18.2 0-32.9 15.3-32.9 33.7 0 18.4 14.7 33.7 32.9 33.7 18.2 0 32.9-15.3 32.9-33.7 0-18.4-14.7-33.7-32.9-33.7zm0 15.4c9.6 0 17.5 8 17.5 18.2 0 10.3-7.9 18.3-17.5 18.3-9.6 0-17.5-8-17.5-18.2 0-10.3 7.9-18.2 17.5-18.2z" class="a"/></g></svg>
