<svg xmlns="http://www.w3.org/2000/svg" width="250" height="250" fill="current"><style>          .a{text-decoration-line:none;text-decoration:none;}</style><style>            .a{baseline-shift:baseline;color-interpolation-filters:linearRGB;color-interpolation:sRGB;color-rendering:auto;direction:ltr;dominant-baseline:auto;font-family:sans-serif;font-feature-settings:normal;font-size:medium;font-variant-alternates:normal;font-variant-caps:normal;font-variant-east-asian:normal;font-variant-ligatures:normal;font-variant-numeric:normal;font-variant-position:normal;font-variation-settings:normal;image-rendering:auto;inline-size:0;isolation:auto;letter-spacing:normal;line-height:normal;mix-blend-mode:normal;shape-margin:0;shape-padding:0;shape-rendering:auto;solid-color:#000;solid-opacity:1;stop-color:#000;text-align:start;text-decoration-color:#000;text-decoration-line:none;text-decoration-style:solid;text-decoration:none;text-indent:0;text-orientation:mixed;text-rendering:auto;text-transform:none;vector-effect:none;white-space:normal;word-spacing:normal;}</style><path d="m193 0c-13.1 0-24 11-24 24.3 0 13.2 10.9 24.3 24 24.3 13.1 0 24-11 24-24.3C217 11.1 206.1 0 193 0ZM100.4 0.3C93.3 0.5 86.8 4 82.4 9.6 80.9 8.7 79.3 8 77.5 7.5 66 4.2 54.2 10.4 49.4 20.7 48.8 21.8 48.3 23 48 24.2L35.4 69.1C34.3 68.7 33.2 68.2 32 67.9 19.1 64.1 5.9 72.3 2.4 84.9V85c-1.2 8.7-1.7 18.9-1.1 27 0.7 28.7 2.1 48.6 10.2 65.3 0.7 1.4 1.4 2.8 2.2 4.1C5.3 188.6 0 199.2 0 211c0 21.4 17.5 39 38.6 39 11.6 0 22.1-5.3 29.2-13.7 14.1 8.8 31 10.6 50.7 10.9h0.2 77.5c1.1 0 2.2-0.1 3.3-0.4 11.5-1.6 21-11.6 21-23.9 0-1.5-0.2-3-0.5-4.5 9.3-3.4 16.2-12.2 16.2-22.7 0-1.8-0.3-3.6-0.7-5.3 8.3-3.7 14.5-12.2 14.5-22.1 0-10.1-6.3-18.5-14.9-22.3 0.4-1.7 0.7-3.5 0.7-5.3 0-12-9.1-21.8-20.2-23.8-1.2-0.3-2.5-0.5-3.7-0.5h-46.4c0.9-6.3-1.3-13.6-4.6-18 3.1-1.7 6.1-19.3 7.5-24.2 0.3-1.1 0.5-2.2 0.5-3.3 1.5-11.7-5.4-23.6-17.1-26.9-1.5-0.4-3-0.6-4.5-0.8C146.6 33.3 140 24.3 130 21.5 128.2 21 126.4 20.8 124.7 20.7 123.6 11.6 117.2 3.3 107.7 0.6 105.1 0.4 102.8 0.2 100.4 0.3Zm4.1 16.6c4.7 1.3 7.5 6.3 6.2 11.4L91.8 94.4c-1 3.6 7.7 6.3 8.8 2.5l15.3-53.5c1.7-4.5 6.5-7 11-5.7 4.5 1.3 7.2 5.8 6.4 10.7L120.5 92.9c-21.4 6.8-49.9 15.9-64.8 29-13.6 12.3-19 29.9-19.6 50.2-2 0.1-4 0.4-5.9 0.9-9-12.7-12.5-27.1-13.3-60.2-0.1-1.1 0.4-21.5 0.7-22.7v-0.1c1.4-5 6.4-8 11.3-6.6 4.1 1.2 6.9 5.2 6.5 9.7l0.5 16c0.1 3.9 4 4.3 4.8 1.3l22.5-81.1c1.5-4.8 6.5-7.6 11.1-6.2 4.7 1.3 7.4 6.2 6.3 11.2v0.1c0 0.1-0.1 0.2-0.1 0.3 0 0.1-0.1 0.2-0.1 0.3l-17.1 62.1c-1 3.5 7.6 6.4 8.7 2.4l21-75.3c0-0.2 0.1-0.4 0.2-0.6v-0.1c2.3-5 6.5-7.9 11.3-6.6zM192.9 15.1h0.1c5 0 9.1 4.1 9.1 9.2 0 5.1-4.1 9.2-9.1 9.2-5 0-9.1-4.1-9.1-9.2 0-5 4-9.1 9-9.2zm23.2 32.7c-16.5 0-30 13.8-30 30.3 0 16.6 13.7 30.3 30 30.3 16.5 0 30-13.8 30-30.3 0-16.6-13.7-30.3-30-30.3zm-70.1 12c0.9 0 1.8 0.1 2.7 0.3 4.8 1.3 7.6 6.5 6.2 11.5L149.4 89.9c-7.2-2.6-11.6-1.4-18.8 0.4l6.8-22.9c0-0.2 0.1-0.4 0.1-0.6 1.1-4.1 4.6-6.8 8.5-6.9zM215.9 62.9h0.2c8.3 0 15.1 6.8 15.1 15.2 0 8.4-6.7 15.2-15.1 15.2-8.3 0-15.1-6.8-15.1-15.2 0-8.3 6.6-15.1 14.9-15.2zm-73.6 41.3h0.1c5.2 0 9.4 4.1 9.4 9.2 0 4.3-3.1 8.1-7.5 9l-15.2 4.8c-3.7 1.2-3 5 0 5h83.5c5 0.2 9 4.2 9 9.1 0 4.9-4 9-9 9.1h-0.1-0.3-0.3l-63.7 0.3c-3.6 0-4.1 9.2 0 9.2h77.5c5.5 0.2 10 4.9 10.2 9.2 0 4.9-4.1 9-9.2 9.1h-73.2c-3.8 0-4 9.2 0 9.2h60.1v0.1c4.8 0.5 8.4 4.4 8.4 9.1 0 4.7-3.7 8.6-8.4 9.1v0.1h-65.3c-3.1 0-3.6 9 0 9h48.8c5.2 0 9.4 4.1 9.4 9.2 0 5-4.2 9.1-9.3 9.2h-77.5C98.4 232.8 86.6 230.4 75.8 221.7c0.9-3.3 1.4-6.7 1.4-10.2 0-15.3-9-28.7-21.8-35-0.1-0.6-0.2-1-0.3-1.6 0.9-37.8 12.1-48.1 65.5-64.7 1.1-0.4 20.6-5.4 21.7-5.4zM38.6 187.2c13.1 0 23.6 10.7 23.6 23.9-0.1 13.1-10.6 23.8-23.6 23.8-13-0.1-23.5-10.7-23.5-23.8 0-13.1 10.5-23.8 23.5-23.9z" style="baseline-shift:baseline;color-interpolation-filters:linearRGB;color-interpolation:sRGB;color-rendering:auto;direction:ltr;dominant-baseline:auto;font-family:sans-serif;font-feature-settings:normal;font-size:medium;font-variant-alternates:normal;font-variant-caps:normal;font-variant-east-asian:normal;font-variant-ligatures:normal;font-variant-numeric:normal;font-variant-position:normal;font-variation-settings:normal;image-rendering:auto;inline-size:0;isolation:auto;letter-spacing:normal;line-height:normal;mix-blend-mode:normal;paint-order:normal;shape-margin:0;shape-padding:0;shape-rendering:auto;solid-color:#000;solid-opacity:1;stop-color:#000;text-align:start;text-decoration-color:#000;text-decoration-line:none;text-decoration-style:solid;text-decoration:none;text-indent:0;text-orientation:mixed;text-rendering:auto;text-transform:none;vector-effect:none;white-space:normal;word-spacing:normal"/></svg>
