<svg xmlns="http://www.w3.org/2000/svg" width="250" height="250" fill="current"><style>  .a{text-decoration-line:none;text-decoration:none;}</style><style>    .a{text-decoration-line:none;text-decoration:none;}</style><style>          .a{text-decoration-line:none;text-decoration:none;}</style><style>            .a{baseline-shift:baseline;color-interpolation-filters:linearRGB;color-interpolation:sRGB;color-rendering:auto;direction:ltr;dominant-baseline:auto;font-family:sans-serif;font-feature-settings:normal;font-size:medium;font-variant-alternates:normal;font-variant-caps:normal;font-variant-east-asian:normal;font-variant-ligatures:normal;font-variant-numeric:normal;font-variant-position:normal;font-variation-settings:normal;image-rendering:auto;inline-size:0;isolation:auto;letter-spacing:normal;line-height:normal;mix-blend-mode:normal;shape-margin:0;shape-padding:0;shape-rendering:auto;solid-color:#000;solid-opacity:1;stop-color:#000;stroke-linejoin:round;stroke-width:20;text-align:start;text-decoration-color:#000;text-decoration-line:none;text-decoration-style:solid;text-decoration:none;text-indent:0;text-orientation:mixed;text-rendering:auto;text-transform:none;vector-effect:none;white-space:normal;word-spacing:normal;}</style><defs><linearGradient><stop offset="0" stop-color="#000"/></linearGradient></defs><g transform="matrix(0.99763829 0 0 0.99755085 -1.1758802 13.680204)"><path d="m126.52458 14.6c-1.84354-0.0027-3.6235 0.673678-5 1.9L3.7 118.8c-3.096748 2.75952-3.36556712 7.50865-0.6 10.6 2.7595165 3.09675 7.508654 3.36557 10.6 0.6L126.72458 32 239.4 130.1c3.17156 2.69135 7.92759 2.28754 10.6-0.9 2.69135-3.17156 2.28754-7.92759-0.9-10.6L131.42458 16.4c-1.3651-1.167398-3.10382-1.806113-4.9-1.8z" class="a"/><path d="m174.6 29.2c-4.14214 0-7.5 3.357864-7.5 7.5V63c0 4.142136 3.35786 7.5 7.5 7.5 4.14214 0 7.5-3.357864 7.5-7.5V44.2h27.17476V221.9H43.674398V102.7c0-4.142136-3.357865-7.5-7.5-7.5-4.142136 0-7.5 3.357864-7.5 7.5v126.7c0 4.14214 3.357864 7.5 7.5 7.5H216.77476c4.14213 0 7.5-3.35786 7.5-7.5V36.7c0-4.142136-3.35787-7.5-7.5-7.5z" class="a"/><path d="m125 82c-23.6 0-43 19.3-43 43 0 23.6 19.3 43 43 43 23.6 0 43-19.3 43-43 0-23.6-19.3-43-43-43zm0 15c15.5 0 28 12.4 28 28 0 15.5-12.4 28-28 28-15.5 0-28-12.4-28-28 0-15.5 12.4-28 28-28z" class="a"/><path d="m109.00977 179.37109c-17.15939 0-30.753117 10.17387-38.833987 20.84766-5.190583 7.58218-10.01804 16.63854-7.681641 25.03906 0.897885 2.99267 3.391542 6.18533 6.583985 7.68164 3.747209 1.69209 8.158132 0.0433 9.876953-3.6914 1.395336-3.09209 0.536772-6.73666-2.09375-8.87891 0.693837-3.80471 3.273097-8.31281 5.287109-10.97266 5.886056-7.78088 15.78738-14.86328 26.960941-14.86328h31.78125c11.17356 0 21.07489 7.0824 26.96094 14.86328 2.01401 2.65985 4.59326 7.16795 5.2871 10.97266-2.63053 2.14225-3.48908 5.78683-2.09375 8.87891 1.71882 3.73473 6.12975 5.38349 9.87696 3.6914 3.19244-1.49631 5.68609-4.68898 6.58398-7.68164 2.3364-8.40052-2.49106-17.45688-7.68164-25.03906-8.08087-10.6738-21.67459-20.84766-38.83398-20.84766-10.66032 0.12587-21.32011 0.0573-31.98047 0z" class="a"/></g></svg>
