<svg xmlns="http://www.w3.org/2000/svg" width="250" height="250" fill="current"><style>            .a{text-decoration-line:none;text-decoration:none;}</style><style>              .a{baseline-shift:baseline;color-interpolation-filters:linearRGB;color-interpolation:sRGB;color-rendering:auto;direction:ltr;dominant-baseline:auto;font-family:sans-serif;font-feature-settings:normal;font-size:medium;font-variant-alternates:normal;font-variant-caps:normal;font-variant-east-asian:normal;font-variant-ligatures:normal;font-variant-numeric:normal;font-variant-position:normal;font-variation-settings:normal;image-rendering:auto;inline-size:0;isolation:auto;letter-spacing:normal;line-height:normal;mix-blend-mode:normal;shape-margin:0;shape-padding:0;shape-rendering:auto;solid-color:#000;solid-opacity:1;stop-color:#000;text-align:start;text-decoration-color:#000;text-decoration-line:none;text-decoration-style:solid;text-decoration:none;text-indent:0;text-orientation:mixed;text-rendering:auto;text-transform:none;vector-effect:none;white-space:normal;word-spacing:normal;}</style><path d="M125 0C56.1 0 0 56.1 0 125 0 193.9 56.1 250 125 250 193.9 250 250 193.9 250 125 250 56.1 193.9 0 125 0zM125 15C185.8 15 235 64.2 235 125 235 152.3 225.1 177.3 208.6 196.5L51.9 42.8C71.3 25.5 96.9 15 125 15zM41.4 53.5L198.1 207.2C178.7 224.5 153.1 235 125 235 64.2 235 15 185.8 15 125 15 97.7 24.9 72.7 41.4 53.5z" style="baseline-shift:baseline;color-interpolation-filters:linearRGB;color-interpolation:sRGB;color-rendering:auto;direction:ltr;dominant-baseline:auto;font-family:sans-serif;font-feature-settings:normal;font-size:medium;font-variant-alternates:normal;font-variant-caps:normal;font-variant-east-asian:normal;font-variant-ligatures:normal;font-variant-numeric:normal;font-variant-position:normal;font-variation-settings:normal;image-rendering:auto;inline-size:0;isolation:auto;letter-spacing:normal;line-height:normal;mix-blend-mode:normal;shape-margin:0;shape-padding:0;shape-rendering:auto;solid-color:#000;solid-opacity:1;stop-color:#000;stroke-linejoin:round;stroke-width:20;text-align:start;text-decoration-color:#000;text-decoration-line:none;text-decoration-style:solid;text-decoration:none;text-indent:0;text-orientation:mixed;text-rendering:auto;text-transform:none;vector-effect:none;white-space:normal;word-spacing:normal"/></svg>
