<svg xmlns="http://www.w3.org/2000/svg" width="250" height="250" fill="current"><style>            .a{text-decoration-line:none;text-decoration:none;}</style><style>              .a{baseline-shift:baseline;color-interpolation-filters:linearRGB;color-interpolation:sRGB;color-rendering:auto;direction:ltr;dominant-baseline:auto;font-family:sans-serif;font-feature-settings:normal;font-size:medium;font-variant-alternates:normal;font-variant-caps:normal;font-variant-east-asian:normal;font-variant-ligatures:normal;font-variant-numeric:normal;font-variant-position:normal;font-variation-settings:normal;image-rendering:auto;inline-size:0;isolation:auto;letter-spacing:normal;line-height:normal;mix-blend-mode:normal;shape-margin:0;shape-padding:0;shape-rendering:auto;solid-color:#000;solid-opacity:1;stop-color:#000;text-align:start;text-decoration-color:#000;text-decoration-line:none;text-decoration-style:solid;text-decoration:none;text-indent:0;text-orientation:mixed;text-rendering:auto;text-transform:none;vector-effect:none;white-space:normal;word-spacing:normal;}</style><path d="M42.3 0C37.1 0 32.9 2.9 32.9 6.6c0 3.6 4.2 6.6 9.4 6.6 5.2 0 9.4-2.9 9.4-6.6C51.8 2.9 47.5 0 42.3 0ZM90.7 0.2C86.6 0.2 83.2 3.5 83.2 7.7V27.2c0 4.1 3.4 7.5 7.5 7.5H105.8c-2.2 8.9-8 18-17.1 29.3-2.6 3.2-2.1 8 1.1 10.6 3.2 2.6 8 2.1 10.6-1.1 9.6-11.8 17-22.9 20-35.1l6.9 3.3v17.1l-5.6 9.8c-1.3 2.2-1.3 4.9-0.1 7.2l4 7.7-3.2 7.4c-0.8 1.8-0.8 3.9-0.1 5.7l2.8 7.1-4.2 6.1c-1.2 1.8-1.6 4.1-1 6.3l1.2 4.1c-16 12.4-28.1 29-32.3 49.4-4.7 22.2 0 48.2 16.8 76.7 1.4 2.3 3.8 3.7 6.5 3.7h84c1.9 0 3.7-0.7 5.1-2 5.4-5 9-12.7 11.8-23 2.9-10.3 4.6-23.1 4-37.5-1.1-28.3-11.2-62.9-38.8-95.8 0-5.7 0-11.4 0-15.7 0-2.5 0-4.7 0-6.2 0-0.8 0-1.4 0-2 0-0.3 0-0.5 0-0.8 0-0.3 0.2-0.1-0.2-1.7-0.5-2-1.8-3.7-3.5-4.7l-1.7-1V41.7h12.7c4.4 0 7.9-3.8 7.5-8.1C192.3 25.5 188.3 17.8 182.8 11.6 177.2 5.3 169.7 0.2 160.7 0.2ZM65.6 11.7c-5.2 0-9.4 3-9.4 6.6 0 3.6 4.2 6.6 9.4 6.6 5.2 0 9.4-2.9 9.4-6.6 0-3.6-4.2-6.6-9.4-6.6 0 0 0 0-0.1 0zm32.7 3.5h62.4c2.9 0 7.3 2.2 10.9 6.3 1.4 1.6 2.5 3.4 3.5 5.2h-9.8c-4.1 0-7.5 3.4-7.5 7.5v0.9h-15.7c-0.5-2.2-2-4.1-4.1-5l-20.4-9.6c0 0 0 0 0 0-0.1 0-0.1-0.1-0.2-0.1 0 0 0 0 0 0-0.1 0-0.1 0-0.2-0.1 0 0 0 0 0 0-0.1 0-0.1 0-0.2-0.1h0c0 0 0 0 0 0-0.1 0-0.1 0-0.2-0.1 0 0 0 0 0 0-0.1 0-0.2-0.1-0.3-0.1 0 0-0.1 0-0.1 0-0.1 0-0.1 0-0.2 0 0 0 0 0 0 0-0.1 0-0.1 0-0.2 0-0.1 0-0.2 0-0.3 0-0.1 0-0.1 0-0.2 0 0 0 0 0 0 0-0.1 0-0.2 0-0.3 0 0 0-0.1 0-0.1 0-0.1 0-0.1 0-0.2 0 0 0 0 0 0 0 0 0 0 0-0.1 0-0.1 0-0.1 0-0.2 0 0 0-0.1 0-0.1 0H98.3ZM42.3 25.2c-5.2 0-9.4 3-9.4 6.6 0 3.6 4.2 6.6 9.4 6.6 5.2 0 9.4-2.9 9.4-6.6 0-3.6-4.2-6.6-9.4-6.6 0 0 0 0-0.1 0zM142.3 50.1h15.5v6.3h-15.5zm-5 21.3h25.9l0 0c0 1.3 0 2.6 0 4.4 0 5.1-0.1 11.7 0 18.5 0 1.8 0.7 3.5 1.8 4.9 26.8 31 36 63 37 88.9 0.5 12.9-1.1 24.3-3.5 32.9-1.9 7-4.5 11.5-6.3 14H116.5C103 210.5 99.9 189.8 103.5 172.7c3.8-17.9 14.9-32.5 30.6-43.4 2.6-1.8 3.8-5.1 2.9-8.2l-1.6-5.7 4.4-6.5c1.4-2.1 1.7-4.7 0.8-7l-3.2-8 3.3-7.8c0.9-2.1 0.8-4.4-0.2-6.4l-3.8-7.2z" style="baseline-shift:baseline;color-interpolation-filters:linearRGB;color-interpolation:sRGB;color-rendering:auto;direction:ltr;dominant-baseline:auto;font-family:sans-serif;font-feature-settings:normal;font-size:medium;font-variant-alternates:normal;font-variant-caps:normal;font-variant-east-asian:normal;font-variant-ligatures:normal;font-variant-numeric:normal;font-variant-position:normal;font-variation-settings:normal;image-rendering:auto;inline-size:0;isolation:auto;letter-spacing:normal;line-height:normal;mix-blend-mode:normal;shape-margin:0;shape-padding:0;shape-rendering:auto;solid-color:#000;solid-opacity:1;stop-color:#000;stroke-linejoin:round;stroke-width:20;text-align:start;text-decoration-color:#000;text-decoration-line:none;text-decoration-style:solid;text-decoration:none;text-indent:0;text-orientation:mixed;text-rendering:auto;text-transform:none;vector-effect:none;white-space:normal;word-spacing:normal"/></svg>
