<svg xmlns="http://www.w3.org/2000/svg" width="250" height="250" fill="current"><g transform="matrix(0.99772849 0 0 1.0001722 0.28397505 -2.5382895)matrix(1.0144073 0 0 1.014098 -31.090363 -0.14121039)"><path d="m115.1 31.7a7.5 7.5 0 0 0-7.5 7.5V172.6a23.6 23.6 0 0 0-16.1 22.4 23.6 23.6 0 0 0 23.6 23.6 23.6 23.6 0 0 0 23.6-23.6 23.6 23.6 0 0 0-16.1-22.4V39.2a7.5 7.5 0 0 0-7.5-7.5z" stroke-linejoin="round"/><path d="M115.2 2.9C93.3 2.9 75.4 20.8 75.4 42.7L75.4 159.2C66.7 168.7 61.3 181.4 61.3 195.3 61.3 224.9 85.6 249.2 115.2 249.2 144.8 249.2 169 224.9 169 195.3 169 181.4 163.7 168.7 155 159.2L155 42.7C155 20.8 137.1 2.9 115.2 2.9zM115.2 17.7C129.1 17.7 140.2 28.8 140.2 42.7L140.2 165.2 142.4 167.4C149.7 174.5 154.2 184.4 154.2 195.3 154.2 216.8 136.7 234.3 115.2 234.3 93.6 234.3 76.1 216.8 76.1 195.3 76.1 184.4 80.7 174.5 88 167.4L90.2 165.2 90.2 42.7C90.2 28.8 101.3 17.7 115.2 17.7z" style="baseline-shift:baseline;color-interpolation-filters:linearRGB;color-interpolation:sRGB;color-rendering:auto;direction:ltr;dominant-baseline:auto;font-family:sans-serif;font-feature-settings:normal;font-size:medium;font-variant-alternates:normal;font-variant-caps:normal;font-variant-east-asian:normal;font-variant-ligatures:normal;font-variant-numeric:normal;font-variant-position:normal;font-variation-settings:normal;image-rendering:auto;inline-size:0;isolation:auto;letter-spacing:normal;line-height:normal;mix-blend-mode:normal;paint-order:normal;shape-margin:0;shape-padding:0;shape-rendering:auto;solid-color:#000;solid-opacity:1;stop-color:#000;text-align:start;text-decoration-color:#000;text-decoration-line:none;text-decoration-style:solid;text-decoration:none;text-indent:0;text-orientation:mixed;text-rendering:auto;text-transform:none;vector-effect:none;white-space:normal;word-spacing:normal"/><path d="M215.5 2.6C198.6 2.6 184.7 16.5 184.7 33.5 184.7 50.5 198.6 64.4 215.5 64.4 232.5 64.4 246.4 50.5 246.4 33.5 246.4 16.5 232.5 2.6 215.5 2.6zM215.5 17.4C224.5 17.4 231.6 24.5 231.6 33.5 231.6 42.5 224.5 49.6 215.5 49.6 206.6 49.6 199.5 42.5 199.5 33.5 199.5 24.5 206.6 17.4 215.5 17.4z" style="baseline-shift:baseline;color-interpolation-filters:linearRGB;color-interpolation:sRGB;color-rendering:auto;direction:ltr;dominant-baseline:auto;font-family:sans-serif;font-feature-settings:normal;font-size:medium;font-variant-alternates:normal;font-variant-caps:normal;font-variant-east-asian:normal;font-variant-ligatures:normal;font-variant-numeric:normal;font-variant-position:normal;font-variation-settings:normal;image-rendering:auto;inline-size:0;isolation:auto;letter-spacing:normal;line-height:normal;mix-blend-mode:normal;shape-margin:0;shape-padding:0;shape-rendering:auto;solid-color:#000;solid-opacity:1;stop-color:#000;stroke-linejoin:round;text-align:start;text-decoration-color:#000;text-decoration-line:none;text-decoration-style:solid;text-decoration:none;text-indent:0;text-orientation:mixed;text-rendering:auto;text-transform:none;vector-effect:none;white-space:normal;word-spacing:normal"/></g><style>    .a{text-decoration-line:none;text-decoration:none;}</style><style>      .a{baseline-shift:baseline;color-interpolation-filters:linearRGB;color-interpolation:sRGB;color-rendering:auto;direction:ltr;dominant-baseline:auto;font-family:sans-serif;font-feature-settings:normal;font-size:medium;font-variant-alternates:normal;font-variant-caps:normal;font-variant-east-asian:normal;font-variant-ligatures:normal;font-variant-numeric:normal;font-variant-position:normal;font-variation-settings:normal;image-rendering:auto;inline-size:0;isolation:auto;letter-spacing:normal;line-height:normal;mix-blend-mode:normal;shape-margin:0;shape-padding:0;shape-rendering:auto;solid-color:#000;solid-opacity:1;stop-color:#000;text-align:start;text-decoration-color:#000;text-decoration-line:none;text-decoration-style:solid;text-decoration:none;text-indent:0;text-orientation:mixed;text-rendering:auto;text-transform:none;vector-effect:none;white-space:normal;word-spacing:normal;}</style></svg>
