<?xml version="1.0" standalone="no"?>
<svg xmlns="http://www.w3.org/2000/svg" viewBox="0 0 192.821 24.94" width="192.821" height="24.94"><g fill="#FA555F" color="#FA555F" transform="translate(0, 0) scale(0.58)"><svg width="50.0" height="43.0" x="0.0" y="0.0" viewBox="0 0 50 43"><path fill="currentColor" fill-rule="nonzero" d="M25 41.89h2.05l-12-20.19-2.95 4.96 9.06 15.23H25zM14.64 21.01l-2.95-4.96-6.8 11.44-.15-.09 2.96 5.29 6.94-11.68zm-2.54-5.64l15.77 26.52h5.9c-3.61-6.08-7.35-12.37-11.08-18.66-2.56-4.3-5.11-8.61-7.63-12.84l-2.96 4.98zm2.55-5.66c-1.15-1.93-2.28-3.84-3.41-5.74L1.21 21.09l3.24 5.78 10.2-17.16zM8.07 33.35l2.89 5.16c.28-.47.22-.36 1.8-3.02l1.89-3.18-2.95-4.97-3.58 6.03-.05-.02zm3.28 5.86l1.5 2.68h2.81l1.15-1.94 1.19-2-2.95-4.96c-.57.95-1.13 1.91-1.7 2.86-.54.91-.08.13-2 3.36zm5.12 2.68h3.88l-1.94-3.26-1 1.67-.94 1.59zM33.74 1.62c-.49.83-.99 1.66-1.48 2.49l2.92 4.92 1.55-2.61c.58-.98 1.17-1.96 1.74-2.93l-1.1-1.87h-3.63zm-1.89 1.81c.36-.61.72-1.21 1.08-1.81h-2.16l1.08 1.81zm7.02.74c-.51.86-1.03 1.73-1.55 2.6l-1.75 2.94 2.96 4.98 3.27-5.5-2.93-5.02zm3.34 5.7l-6.62 11.14 2.95 4.96 6.6-11.11-2.93-4.99zm-7.02 10.46l2.95-4.96-8.18-13.75h-5.9l11.13 18.71zm10.36-4.77l-9.96 16.75c1.23 2.06 2.42 4.07 3.57 6l9.63-17.21-3.24-5.54zM35.18 31.63l2.95-4.97L23.25 1.61h-5.94c3.94 6.62 7.61 12.79 11.29 18.97 2.23 3.74 4.45 7.47 6.58 11.05zm3.58 7.38C34.97 32.63 31.48 26.79 28 20.94c-3.98-6.68-7.96-13.36-11.51-19.33h-3.88l-.98 1.67c.01.01.01.02.02.02 3.78 6.36 7.7 12.97 11.63 19.57 3.81 6.41 7.61 12.82 11.29 19.01h2.57l1.62-2.87zm-1.41 3.58h-24.7a.33.33 0 0 1-.3-.18L.51 21.26a.363.363 0 0 1 0-.35l11.6-19.8c.06-.12.18-.2.32-.2h25.15c.12 0 .24.06.3.17l11.6 19.82c.07.1.08.24.01.36L37.67 42.39c-.05.12-.18.2-.32.2z"></path></svg></g><line x1="41" y1="1" x2="41" y2="23.94" stroke="#040404" stroke-linecap="round"></line><path fill="#040404" fill-rule="nonzero" d="M8.39 2.44L8.39 2.44Q10.58 2.44 12.13 3.20L12.13 3.20L12.13 6.79L12.11 6.81Q11.45 5.80 9.34 5.47L9.34 5.47Q8.72 5.37 7.77 5.37Q6.82 5.37 5.91 5.72Q4.99 6.08 4.41 6.74L4.41 6.74Q3.27 8.02 3.27 10.38L3.27 10.38Q3.27 13.14 4.71 14.48L4.71 14.48Q5.91 15.61 7.88 15.61L7.88 15.61Q10.10 15.61 11.48 14.66L11.48 14.66Q11.99 14.32 12.34 13.82L12.34 13.82L12.38 13.84L12.38 17.12Q10.58 18.61 7.55 18.61L7.55 18.61Q3.97 18.61 1.95 16.34L1.95 16.34Q0 14.17 0 10.59L0 10.59Q0 6.81 2.13 4.63L2.13 4.63Q4.29 2.44 8.39 2.44ZM14.14 12.26L14.14 12.26Q14.14 10.97 14.58 9.79Q15.02 8.61 15.84 7.73L15.84 7.73Q17.64 5.84 20.50 5.84L20.50 5.84Q23.34 5.84 25.02 7.63L25.02 7.63Q26.63 9.34 26.63 12.07L26.63 12.07Q26.63 14.80 24.97 16.59L24.97 16.59Q23.23 18.49 20.34 18.49L20.34 18.49Q17.37 18.49 15.68 16.63L15.68 16.63Q14.14 14.93 14.14 12.26ZM16.99 12.19L16.99 12.19Q16.99 12.93 17.24 13.62Q17.48 14.31 17.94 14.80L17.94 14.80Q18.91 15.87 20.50 15.87L20.50 15.87Q21.96 15.87 22.80 14.82L22.80 14.82Q23.63 13.82 23.63 12.20L23.63 12.20Q23.63 10.56 22.78 9.55L22.78 9.55Q21.88 8.47 20.31 8.47L20.31 8.47Q18.71 8.47 17.81 9.62L17.81 9.62Q16.99 10.68 16.99 12.19ZM32.23 18.32L27.29 6.07L30.61 6.07L33.47 14.13L36.23 6.07L39.48 6.07L34.64 18.32L32.23 18.32ZM43.41 4.48L40.77 2.58Q41.71 1.11 42.73 0L42.73 0L45.25 1.98Q44.74 2.60 44.31 3.20L44.31 3.20Q44.31 3.20 43.41 4.48L43.41 4.48ZM43.85 6.07L43.85 17.00Q43.85 18.01 43.90 18.32L43.90 18.32L40.92 18.32L40.92 6.07L43.85 6.07ZM55.56 17.66L55.56 17.66Q54.07 18.49 52.58 18.49Q51.09 18.49 49.98 18.02Q48.87 17.55 48.08 16.73L48.08 16.73Q46.46 15.05 46.46 12.35L46.46 12.35Q46.46 9.56 48.34 7.71L48.34 7.71Q50.23 5.84 53.17 5.84L53.17 5.84Q54.07 5.84 54.94 6.07L54.94 6.07L54.94 0.86L57.81 0.86L57.81 13.38Q57.81 14.94 57.96 15.42Q58.10 15.90 58.28 16.13Q58.46 16.35 58.75 16.55L58.75 16.55L56.54 18.49Q55.93 18.16 55.56 17.66ZM53.13 15.80L53.13 15.80Q54.12 15.80 54.94 15.42L54.94 15.42L54.94 8.93Q54.12 8.59 53.16 8.59Q52.20 8.59 51.51 8.85Q50.82 9.11 50.33 9.56L50.33 9.56Q49.30 10.52 49.30 12.06L49.30 12.06Q49.30 13.73 50.24 14.73L50.24 14.73Q51.25 15.80 53.13 15.80ZM67.10 5.36L67.10 18.39Q66.54 18.32 64.21 18.32L64.21 18.32L63.83 18.32L63.83 5.36L61.51 5.36Q60.48 5.36 60.29 5.46Q60.11 5.57 60 5.65L60 5.65L59.96 5.64L59.96 2.64L60 2.60Q60.39 2.73 62.09 2.73L62.09 2.73L69.43 2.73Q70.46 2.73 70.65 2.63Q70.84 2.52 70.95 2.44L70.95 2.44L70.98 2.45L70.98 5.45L70.95 5.48Q70.56 5.36 68.86 5.36L68.86 5.36L67.10 5.36ZM75.97 9.79L75.97 17.00Q75.97 18.01 76.02 18.32L76.02 18.32L73.10 18.32L73.10 6.07L75.97 6.07L75.97 6.97Q76.97 5.84 78.06 5.84Q79.16 5.84 79.79 6.11L79.79 6.11L79.58 9.26L79.54 9.29Q79.13 8.57 77.84 8.57L77.84 8.57Q77.34 8.57 76.83 8.90Q76.32 9.23 75.97 9.79L75.97 9.79ZM89.31 17.59L89.31 17.59Q87.64 18.49 86.30 18.49Q84.95 18.49 83.99 18.24Q83.03 17.99 82.36 17.50L82.36 17.50Q81 16.50 81 14.61L81 14.61Q81 12.93 82.66 11.80L82.66 11.80Q84.47 10.58 87.56 10.58L87.56 10.58L88.03 10.59Q88.17 10.61 88.35 10.61Q88.52 10.62 88.66 10.64L88.66 10.64Q88.57 8.77 87.05 8.45L87.05 8.45Q86.54 8.34 85.97 8.34Q85.41 8.34 84.86 8.44Q84.32 8.54 83.80 8.71L83.80 8.71Q82.66 9.07 82.17 9.54L82.17 9.54L82.14 9.52L81.79 6.93Q83.86 5.84 86.32 5.84L86.32 5.84Q90.14 5.84 91.21 8.59L91.21 8.59Q91.55 9.47 91.55 10.57L91.55 10.57L91.55 14.81Q91.55 16.17 92.51 16.66L92.51 16.66L90.39 18.61Q89.72 18.26 89.31 17.59ZM88.68 15.20L88.68 12.75Q88.36 12.69 88.02 12.69L88.02 12.69L87.55 12.69Q84.96 12.69 84.26 13.84L84.26 13.84Q84.05 14.18 84.05 14.55Q84.05 14.93 84.18 15.22Q84.32 15.50 84.63 15.69L84.63 15.69Q85.24 16.04 86.44 16.04Q87.64 16.04 88.69 15.47L88.69 15.47Q88.68 15.34 88.68 15.20L88.68 15.20ZM104.51 14.32L104.78 17.18Q103.46 18.49 100.66 18.49L100.66 18.49Q97.95 18.49 96.22 16.84L96.22 16.84Q94.48 15.16 94.48 12.39L94.48 12.39Q94.48 9.56 96.20 7.75L96.20 7.75Q98.03 5.84 101.09 5.84L101.09 5.84Q103.25 5.84 104.72 6.79L104.72 6.79L104.25 9.79L104.17 9.77Q103.61 9.09 102.98 8.88L102.98 8.88Q101.98 8.53 100.97 8.53Q99.96 8.53 99.39 8.79Q98.81 9.05 98.40 9.50L98.40 9.50Q97.58 10.44 97.58 11.99L97.58 11.99Q97.58 14.73 99.48 15.57L99.48 15.57Q100.14 15.86 100.87 15.86Q101.60 15.86 102.15 15.73Q102.69 15.60 103.14 15.38L103.14 15.38Q104.09 14.91 104.43 14.29L104.43 14.29L104.51 14.32ZM110.27 15.52L110.27 16.77Q110.27 17.78 110.36 18.32L110.36 18.32L107.40 18.32L107.40 1.56L110.27 1.56L110.27 11.82L115.63 6.07L119.11 6.07L114.49 10.93L117.13 14.53Q117.98 15.89 118.42 16.52L118.42 16.52L119.19 17.61Q119.54 18.07 119.78 18.32L119.78 18.32L117.93 18.32Q116.89 18.32 116.16 18.49L116.16 18.49L112.50 13.15L110.27 15.52ZM120.62 12.29L120.62 12.29Q120.62 10.92 121.09 9.75Q121.56 8.58 122.41 7.70L122.41 7.70Q124.24 5.84 127.20 5.84L127.20 5.84Q129.69 5.84 131.20 7.49L131.20 7.49Q132.69 9.08 132.69 11.50L132.69 11.50Q132.69 12.42 132.55 12.76L132.55 12.76Q131.38 13.09 127.78 13.09L127.78 13.09L123.66 13.09Q123.96 14.34 125.07 15.04Q126.19 15.74 127.97 15.74L127.97 15.74Q129.83 15.74 131.17 15.07L131.17 15.07Q131.52 14.89 131.70 14.74L131.70 14.74Q131.67 15.23 131.64 15.75L131.64 15.75L131.51 17.58Q130.62 18.19 128.63 18.42L128.63 18.42Q128.04 18.49 127.50 18.49L127.50 18.49Q124.52 18.49 122.58 16.76L122.58 16.76Q120.62 15.01 120.62 12.29ZM129.57 10.82L129.57 10.82Q129.09 8.30 126.83 8.30L126.83 8.30Q125.05 8.30 124.13 9.83L124.13 9.83Q123.84 10.30 123.69 10.86L123.69 10.86Q123.97 10.88 124.38 10.89L124.38 10.89L125.25 10.89Q125.68 10.90 126.08 10.90L126.08 10.90L126.75 10.90Q127.35 10.90 127.92 10.89L127.92 10.89L128.88 10.85Q129.27 10.84 129.57 10.82ZM138 9.79L138 17.00Q138 18.01 138.05 18.32L138.05 18.32L135.13 18.32L135.13 6.07L138 6.07L138 6.97Q139.00 5.84 140.09 5.84Q141.19 5.84 141.82 6.11L141.82 6.11L141.61 9.26L141.56 9.29Q141.15 8.57 139.86 8.57L139.86 8.57Q139.37 8.57 138.86 8.90Q138.35 9.23 138 9.79L138 9.79Z" transform="translate(51, 3.166)"></path></svg>